<?xml version="1.0" encoding="UTF-8"?>
<svg width="103px" height="103px" viewBox="0 0 103 103" version="1.1" xmlns="http://www.w3.org/2000/svg" xmlns:xlink="http://www.w3.org/1999/xlink">
    <title>Group 8</title>
    <defs>
        <polygon id="path-1" points="0 0 103 0 103 103 0 103"></polygon>
    </defs>
    <g id="Page-1" stroke="none" stroke-width="1" fill="none" fill-rule="evenodd">
        <g id="tequila_ar-start" transform="translate(-139.000000, -209.000000)">
            <g id="Group-8" transform="translate(139.000000, 209.000000)">
                <path d="M76.7137062,20.645284 C75.407028,21.3005071 74.0300188,21.9890467 72.6011866,22.7072008 C71.176056,23.4216531 69.6657877,24.2175456 67.8704934,25.4761663 C66.075199,26.7384888 64.0800162,28.4561359 62.1440596,30.3514706 C60.208103,32.2468053 58.4868414,34.0644016 57.0617109,35.6043611 C55.6402819,37.1443205 54.4779676,38.3881339 53.5192434,39.3654158 C52.7530044,40.146501 52.1015162,40.7610041 51.4981492,41.2940669 C50.8984838,40.7610041 50.2469956,40.146501 49.4807566,39.3654158 C48.5220324,38.3881339 47.3597181,37.1443205 45.9382891,35.6043611 C44.5131586,34.0644016 42.791897,32.2468053 40.8559404,30.3514706 C38.9162821,28.4561359 36.924801,26.7384888 35.1295066,25.4761663 C33.3342123,24.2175456 31.823944,23.4216531 30.3951118,22.7072008 C28.9699812,21.9890467 27.592972,21.3005071 26.2862938,20.645284 C19.752903,17.376572 15,15 15,15 C15,15 17.3764515,19.7494422 20.6449977,26.2831643 C21.3001876,27.5936105 21.9923939,28.9706897 22.70681,30.3958925 C23.4212261,31.8210953 24.2170782,33.335142 25.4793367,35.1268256 C26.7415953,36.922211 28.4554536,38.9174949 30.3506922,40.8572515 C32.2459307,42.7933063 34.0634349,44.5146552 35.6033163,45.9361562 C37.1431976,47.361359 38.3869479,48.5237323 39.3641803,49.4825051 C40.1452259,50.248783 40.7596978,50.9003043 41.2927336,51.5 C40.7596978,52.0996957 40.1452259,52.751217 39.3641803,53.5174949 C38.3869479,54.4762677 37.1431976,55.638641 35.6033163,57.0638438 C34.0634349,58.4853448 32.2459307,60.2066937 30.3506922,62.1464503 C28.4554536,64.0825051 26.7415953,66.077789 25.4793367,67.8731744 C24.2170782,69.6685598 23.4212261,71.1789047 22.70681,72.6041075 C21.9923939,74.0293103 21.3001876,75.4100913 20.6449977,76.7168357 C17.3764515,83.2505578 15,88 15,88 C15,88 19.752903,85.623428 26.2862938,82.354716 C27.592972,81.6994929 28.9699812,81.0109533 30.3951118,80.296501 C31.823944,79.5783469 33.3342123,78.7824544 35.1295066,77.5238337 C36.924801,76.2615112 38.9162821,74.5438641 40.8559404,72.6485294 C42.791897,70.7531947 44.5131586,68.9355984 45.9382891,67.3956389 C47.3597181,65.8593813 48.5220324,64.6118661 49.4807566,63.6345842 C50.2469956,62.853499 50.8984838,62.2389959 51.4981492,61.7059331 C52.1015162,62.2389959 52.7530044,62.853499 53.5192434,63.6345842 C54.4779676,64.6118661 55.6402819,65.8593813 57.0617109,67.3956389 C58.4868414,68.9355984 60.2044014,70.7531947 62.1440596,72.6485294 C64.0800162,74.5438641 66.075199,76.2615112 67.8704934,77.5238337 C69.6657877,78.7824544 71.176056,79.5783469 72.6011866,80.296501 C74.0300188,81.0109533 75.407028,81.6994929 76.7137062,82.354716 C83.247097,85.623428 88,88 88,88 C88,88 85.6198469,83.2505578 82.3513006,76.7168357 C81.6998124,75.4100913 81.0076061,74.0293103 80.29319,72.6041075 C79.5787739,71.1789047 78.7829218,69.6685598 77.5206633,67.8731744 C76.2584047,66.077789 74.5408448,64.0825051 72.6493078,62.1464503 C70.7540693,60.2066937 68.9365651,58.4853448 67.3966837,57.0638438 C65.8568024,55.638641 64.6130521,54.4762677 63.6358197,53.5174949 C62.8510725,52.751217 62.2403022,52.0996957 61.7035647,51.5 C62.2403022,50.9003043 62.8510725,50.248783 63.6358197,49.4825051 C64.6130521,48.5237323 65.8568024,47.361359 67.3966837,45.9361562 C68.9365651,44.5146552 70.7540693,42.7933063 72.6493078,40.8572515 C74.5408448,38.9174949 76.2584047,36.922211 77.5206633,35.1268256 C78.7829218,33.335142 79.5787739,31.8210953 80.29319,30.3958925 C81.0076061,28.9706897 81.6998124,27.5936105 82.3513006,26.2831643 C85.6198469,19.7494422 88,15 88,15 C88,15 83.247097,17.376572 76.7137062,20.645284" id="Fill-1" fill="#EF514C"></path>
                <g id="Group-5">
                    <mask id="mask-2" fill="white">
                        <use xlink:href="#path-1"></use>
                    </mask>
                    <g id="Clip-4"></g>
                    <path d="M91.0561083,47.5209044 C89.6711487,47.0592496 88.2123246,46.5754353 86.7017953,46.0731548 C85.1912661,45.5708743 83.5625536,45.0685938 81.409403,44.6918835 C79.2525593,44.3151731 76.6340623,44.1194315 73.9306211,44.0898855 C71.22718,44.0603396 68.7305595,44.1268179 66.6401938,44.2080692 C64.5498281,44.2930137 62.8509443,44.3484123 61.4844508,44.3631852 C60.3949492,44.3742649 59.5011886,44.344719 58.6997587,44.3004002 C58.6517468,43.4989673 58.6258942,42.6052035 58.6369738,41.5156981 C58.6517468,40.1491997 58.7071451,38.4503098 58.7920893,36.3599366 C58.8733403,34.2695634 58.9398184,31.7729339 58.9102725,29.0694831 C58.8807267,26.3660322 58.6849858,23.7475259 58.3082768,21.5906744 C57.9315678,19.4338229 57.4292891,17.8087978 56.9270104,16.2982631 C56.4247317,14.7877284 55.9409191,13.3288991 55.4792659,11.9439345 C53.1746932,5.02649809 51.501662,0 51.501662,0 C51.501662,0 49.8249375,5.02649809 47.5203647,11.9439345 C47.0624048,13.3288991 46.574899,14.7877284 46.0763135,16.2982631 C45.5740348,17.8087978 45.0680629,19.4338229 44.6913539,21.5906744 C44.3146449,23.7475259 44.1189039,26.3660322 44.0893581,29.0694831 C44.0598123,31.7729339 44.1262904,34.2695634 44.2112346,36.3599366 C44.2924855,38.4503098 44.3515772,40.1491997 44.3626568,41.5156981 C44.3737365,42.6052035 44.3478839,43.4989673 44.299872,44.3004002 C43.5021353,44.344719 42.6083747,44.3742649 41.5151799,44.3631852 C40.1486864,44.3484123 38.4498026,44.2930137 36.3594369,44.2080692 C34.2727644,44.1268179 31.7761439,44.0603396 29.0727028,44.0898855 C26.3655684,44.1194315 23.7507646,44.3151731 21.5939209,44.6918835 C19.4370771,45.0685938 17.8083646,45.5708743 16.2978353,46.0731548 C14.7873061,46.5754353 13.3284819,47.0592496 11.9435223,47.5209044 C5.02980397,49.8254855 -0.000369322562,51.4985227 -0.000369322562,51.4985227 C-0.000369322562,51.4985227 5.02980397,53.1752531 11.9435223,55.476141 C13.3284819,55.9377958 14.7873061,56.4216101 16.2978353,56.9238906 C17.8083646,57.4261711 19.4370771,57.9321448 21.5939209,58.3088552 C23.7507646,58.6818723 26.3655684,58.8813072 29.0727028,58.9108531 C31.7761439,58.940399 34.2727644,58.8702275 36.3594369,58.7889762 C38.4498026,58.707725 40.1486864,58.6486331 41.5151799,58.6375534 C42.6083747,58.6264737 43.5021353,58.6523264 44.299872,58.7003385 C44.3478839,59.4980781 44.3737365,60.3918419 44.3626568,61.4850406 C44.3515772,62.851539 44.2924855,64.5504288 44.2112346,66.6371088 C44.1262904,68.727482 44.0598123,71.2241115 44.0893581,73.9275623 C44.1189039,76.6310132 44.3146449,79.2495195 44.6913539,81.406371 C45.0680629,83.5632225 45.5740348,85.1919409 46.0763135,86.7024755 C46.574899,88.2130102 47.0624048,89.6718396 47.5203647,91.0568042 C49.8249375,97.9705473 51.501662,103.000739 51.501662,103.000739 C51.501662,103.000739 53.1746932,97.9705473 55.4792659,91.0568042 C55.9409191,89.6718396 56.4247317,88.2130102 56.9270104,86.7024755 C57.4292891,85.1919409 57.9315678,83.5632225 58.3082768,81.406371 C58.6849858,79.2495195 58.8807267,76.6310132 58.9102725,73.9275623 C58.9398184,71.2241115 58.8733403,68.727482 58.7920893,66.6371088 C58.7071451,64.5504288 58.6517468,62.851539 58.6369738,61.4850406 C58.6258942,60.3918419 58.6517468,59.4980781 58.6997587,58.7003385 C59.5011886,58.6523264 60.3949492,58.6264737 61.4844508,58.6375534 C62.8509443,58.6486331 64.5498281,58.707725 66.6401938,58.7889762 C68.7305595,58.8702275 71.22718,58.940399 73.9306211,58.9108531 C76.6340623,58.8813072 79.2525593,58.6818723 81.409403,58.3088552 C83.5625536,57.9321448 85.1912661,57.4261711 86.7017953,56.9238906 C88.2123246,56.4216101 89.6711487,55.9377958 91.0561083,55.476141 C97.9698267,53.1752531 103,51.4985227 103,51.4985227 C103,51.4985227 97.9698267,49.8254855 91.0561083,47.5209044" id="Fill-3" fill="#EF514C" mask="url(#mask-2)"></path>
                </g>
                <path d="M62,51 C62,45.4785503 57.5243203,41 51.9981505,41 C46.4756797,41 42,45.4785503 42,51 C42,56.5214497 46.4756797,61 51.9981505,61 C57.5243203,61 62,56.5214497 62,51" id="Fill-6" fill="#EBC823"></path>
            </g>
        </g>
    </g>
</svg>