<?xml version="1.0" encoding="UTF-8"?>
<svg width="390px" height="812px" viewBox="0 0 390 812" version="1.1" xmlns="http://www.w3.org/2000/svg" xmlns:xlink="http://www.w3.org/1999/xlink">
    <title>Group</title>
    <defs>
        <path d="M0.49125,10.465 C-0.16375,11.056 -0.16375,12.085 0.49125,12.677 L0.49125,12.677 C3.69725,15.571 13.15325,23.142 24.32125,23.142 L24.32125,23.142 C35.48725,23.142 44.94325,15.571 48.14925,12.677 L48.14925,12.677 C48.80525,12.085 48.80525,11.056 48.14925,10.465 L48.14925,10.465 C44.94325,7.571 35.48725,0 24.32125,0 L24.32125,0 C13.15325,0 3.69725,7.571 0.49125,10.465 L0.49125,10.465 Z" id="path-1"></path>
    </defs>
    <g id="Page-1" stroke="none" stroke-width="1" fill="none" fill-rule="evenodd">
        <g id="Group" transform="translate(-12.000000, -19.000000)">
            <path d="M414,0 L414,850 L0,850 L0,0 L414,0 Z M210.823836,211.000907 L208.781692,211.000429 C204.303749,211.005161 200.681942,211.04902 199.277,211.130334 C190.496,211.638334 184.638,212.816334 180.875,213.936334 C177.318,214.996334 174.898,218.275334 174.895,221.987334 C174.892,227.317334 175.003,235.900334 175.594,244.963334 C174.3,252.733334 182.203,257.392334 182.203,257.392334 L182.203,318.412334 C182.203,327.125334 178.566,335.443334 172.169,341.359334 L147.674,364.012334 C137.044,373.843334 131,387.665334 131,402.145334 L131,570.507334 C131,572.719334 131.109,574.931334 131.328,577.133334 C134.149,605.527334 155.528,629.618334 183.246,636.130334 C184.911,636.521334 186.57,636.826334 188.261,637.093334 C215.606,641.407334 246.876,641.934334 270.553,625.404334 C288.492,612.881334 299.18,592.384334 299.18,570.507334 L299.18,402.145334 C299.18,387.665334 293.136,373.843334 282.506,364.012334 L258.011,341.359334 C251.614,335.443334 247.977,327.125334 247.977,318.412334 L247.977,257.392334 C247.977,257.392334 255.88,252.733334 254.585,244.963334 C255.176,235.900334 255.288,227.317334 255.285,221.987334 C255.282,218.275334 252.862,214.996334 249.305,213.936334 C246.357,213.058334 242.122,212.145334 236.203,211.547334 C233.588058,211.282741 226.090807,211.116789 218.475912,211.043628 L217.36125,211.033584 C215.132459,211.014816 212.913501,211.003973 210.823836,211.000907 Z" id="Stroke-2" fill-opacity="0.7" fill="#000000"></path>
            <g id="Group-19" transform="translate(180.596005, 470.189134)" stroke="#EFE5D6" stroke-width="2">
                <path d="M57.3631949,37.44 C55.8911949,30.249 54.4191949,23.058 52.9471949,15.867 C51.8641949,10.578 50.7811949,5.289 49.6981949,0 L46.1741949,0 L44.0521949,8.531 L40.3541949,8.531 L38.1111949,0 L34.4061949,0 L30.7001949,0 L28.4571949,8.531 L24.7591949,8.531 L22.6371949,0 L19.1131949,0 C18.0301949,5.289 16.9471949,10.578 15.8651949,15.867 C14.3921949,23.06 12.9201949,30.252 11.4471949,37.444" id="Stroke-3"></path>
                <path d="M39.0778949,91.1157 C44.6378949,91.1647 50.1988949,91.0237 55.7488949,90.6937 C58.6348949,90.5217 61.5178949,90.2987 64.3948949,90.0247 C66.0758949,89.8647 67.7978949,90.3157 67.8178949,88.5057 C67.8448949,86.0047 66.6928949,83.0137 66.1938949,80.5747 C65.4478949,76.9317 64.7028949,73.2897 63.9568949,69.6477" id="Stroke-5"></path>
                <path d="M4.85559488,69.6432 C4.10959488,73.2872 3.36359488,76.9302 2.61759488,80.5742 C2.11859488,83.0142 0.966594879,86.0042 0.993594879,88.5052 C1.01359488,90.3162 2.73559488,89.8652 4.41659488,90.0252 C7.29359488,90.2992 10.1765949,90.5222 13.0625949,90.6932 C18.6125949,91.0242 24.1735949,91.1642 29.7335949,91.1162" id="Stroke-7"></path>
                <path d="M39.8838949,31.0744 L49.3558949,31.2664 L47.9168949,18.8404 C47.7028949,16.9884 45.9958949,15.6314 44.0838949,15.6314 C42.1708949,15.6314 40.4638949,16.9884 40.2498949,18.8404 L39.8838949,31.0744 Z" id="Stroke-9"></path>
                <path d="M39.8838949,31.0744 L49.3558949,31.2664 L47.9168949,18.8404 C47.7028949,16.9884 45.9958949,15.6314 44.0838949,15.6314 L44.0838949,15.6314 C42.1708949,15.6314 40.4638949,16.9884 40.2498949,18.8404 L39.8838949,31.0744 Z" id="Stroke-11"></path>
                <path d="M28.9276949,31.0744 L19.4556949,31.2664 L20.8946949,18.8404 C21.1086949,16.9884 22.8156949,15.6314 24.7276949,15.6314 L24.7276949,15.6314 C26.6406949,15.6314 28.3476949,16.9884 28.5616949,18.8404 L28.9276949,31.0744 Z" id="Stroke-13"></path>
                <path d="M28.9276949,31.0744 L19.4556949,31.2664 L20.8946949,18.8404 C21.1086949,16.9884 22.8156949,15.6314 24.7276949,15.6314 L24.7276949,15.6314 C26.6406949,15.6314 28.3476949,16.9884 28.5616949,18.8404 L28.9276949,31.0744 Z" id="Stroke-15"></path>
                <path d="M65.3519949,42.4439 C61.8679949,39.0789 57.5789949,36.8679 52.6939949,36.4519 C45.4449949,35.8349 38.0019949,39.4729 34.4059949,45.2999 C30.8099949,39.4729 23.3659949,35.8349 16.1179949,36.4519 C11.2319949,36.8679 6.94399488,39.0789 3.45999488,42.4439 C0.00299487892,45.7829 -0.372005121,51.6019 0.242994879,56.1279 C1.78199488,67.4619 7.87999488,75.9919 17.0049949,82.6669 C19.9189949,84.7979 22.9779949,86.7189 26.0379949,88.6299 C28.6969949,90.2909 31.3469949,92.4159 34.1459949,93.8529 C34.3189949,93.9699 34.4919949,93.9699 34.6659949,93.8529 C37.4649949,92.4159 40.1149949,90.2909 42.7739949,88.6299 C45.8339949,86.7189 48.8929949,84.7979 51.8069949,82.6669 C60.9319949,75.9919 67.0289949,67.4619 68.5689949,56.1279 C69.1839949,51.6019 68.8079949,45.7829 65.3519949,42.4439 Z" id="Stroke-17"></path>
            </g>
            <g id="Group-22" transform="translate(190.593250, 527.891634)">
                <mask id="mask-2" fill="white">
                    <use xlink:href="#path-1"></use>
                </mask>
                <g id="Clip-21"></g>
                <path d="M35.89165,8.2923 C35.89165,1.9013 30.71065,-3.2787 24.32065,-3.2787 C17.92965,-3.2787 12.74865,1.9013 12.74865,8.2923 C12.74865,14.6833 17.92965,19.8633 24.32065,19.8633 C30.71065,19.8633 35.89165,14.6833 35.89165,8.2923 Z" id="Stroke-20" stroke="#EFE5D6" stroke-width="2" mask="url(#mask-2)"></path>
            </g>
            <path d="M238.7428,540.568434 C239.3978,539.976434 239.3978,538.947434 238.7428,538.356434 C235.5368,535.462434 226.0798,527.891434 214.9138,527.891434 C203.7468,527.891434 194.2908,535.462434 191.0848,538.356434 C190.4288,538.947434 190.4288,539.976434 191.0848,540.568434 C194.2908,543.462434 203.7468,551.033434 214.9138,551.033434 C226.0798,551.033434 235.5368,543.462434 238.7428,540.568434 Z" id="Stroke-23" stroke="#EFE5D6" stroke-width="2"></path>
        </g>
    </g>
</svg>